<?xml version="1.0" encoding="utf-8"?>
<!-- Generator: Adobe Illustrator 25.4.1, SVG Export Plug-In . SVG Version: 6.00 Build 0)  -->
<svg version="1.1" id="lola-anim" shape-rendering="geometricPrecision" text-rendering="geometricPrecision"
	 xmlns="http://www.w3.org/2000/svg" xmlns:xlink="http://www.w3.org/1999/xlink" x="0px" y="0px" width="150px" height="103.5px"
	 viewBox="0 0 150 103.5" style="enable-background:new 0 0 150 103.5;" xml:space="preserve">
<style type="text/css">
	.st0{fill:#FFFFFF;}
</style>
<g id="lola-anim-s-g1" transform="translate(.138239-.036182)">
	<g id="lola-anim-u-carro" transform="matrix(.999986-.005333 0.005333 0.999986-.252982 0.266714)">
		<path id="lola-anim-u-fondo" class="st0" d="M42,89.9c0.3-1.3,0.6-2.7,0.6-4.2c0.1-7.9-5.4-14.1-12.1-14.2
			c-6.8-0.1-13.6,2.7-13.7,10.4c0,1.5-0.5,4.9,0,6.2l-5.3,0L4.1,70.2L17.7,52L7.3,36.8c0,0,34.5-3.9,34.7-3.9L61.6,8.4l12.6,0.1
			l7.3,0l9.8-3l6.3,0l2.4,4.7l8.4,1.8l8.9,2.2l12.6,9.3l6.5,9.8l11.6,13.3l-9.5,10.8l-11.2,10.1l-1.1,22.4l-6-0.1
			c0.2-0.7,0.2-1.2,0.2-1.8c0.1-6.9-4.8-12.6-10.8-12.6c-6-0.1-11,5.6-11,12.4c0,0.8-20.1-1.7-19.9-0.9L42,89.9z"/>
		<path id="lola-anim-s-path1" d="M64.7,13.5c1.6-0.9,3.5-1.3,5.3-1.5c0.6-0.1,0.7,0.9,0.1,0.9c-1,0.1-2.2,0.4-3.2,0.7l0.1,0
			c-1,0.3-1.9,0.7-2.8,1.1c0,0-0.1,0.1,0,0c-0.4,0.3-1.3,1-1.5,1.3s-0.9,0.3-0.9-0.2C61.9,14.9,63.8,13.9,64.7,13.5z"/>
		<path id="lola-anim-s-polygon1" d="M54.6,89.5l-1.2,0L54.6,89.5z"/>
		<path id="lola-anim-s-path2" d="M41.7,87.7C41.7,87.7,41.7,87.6,41.7,87.7c8.4-0.3,47.6,0.8,56.3-0.1c0,0.7,0.1,1.3,0.3,1.9
			c-11.2,0.2-46.7,0.7-57.2-0.3c0.2-0.4,0.3-0.4,0.4-0.9C41.5,88.3,41.7,87.7,41.7,87.7z"/>
		<path id="lola-anim-s-path3" d="M2.7,70.9c1.8,4.5,5.8,13.6,7.8,18l7.9,0.1c-0.3-0.6-0.3-1.2-0.4-1.8l-6.4-0.1
			c-1.7-3.9-5.3-12-6.8-15.9l13.7-15.7L10,37.3l33.2-3.1L52,22.5c0.1,3.2,1.5,6.6,4.1,8.8c-2.8,0.6-5.1,2.4-6.3,5.2l-8,0.6L47.6,75
			l15.6,10.5L77.8,85l-1.4-5.8c6.1,4.7,14.3,7.6,22.1,5.8c0.3-1.7,0.9-3.3,1.9-4.8c-7,3.4-15,0.9-21.4-2.6c2.6,0.3,5.2-0.1,7.7-0.8
			c1.6,1.3,3.5,2.1,5.5,2.4c2.2,0.5,4.5,0.3,6.7-0.2c0.3,0,0.1-0.3,0-0.3c-2,0-4.2-0.6-5.9-1.7c-0.4-0.3-0.9-0.6-1.3-0.9
			c-0.9-0.6-1.2-1.2-1.9-1.8c5.5,1.9,11.6,1.6,16.9-0.4c-0.3,0.9-0.9,1.7-1.5,2.5c1.5-0.7,3.4-1,5.1-0.8c0.2-0.6,0.4-1.2,0.6-1.7
			c4.2,0.9,8.6,0.4,12.5-1.2c-1.2,2.8-3.3,4.9-5.9,6.5c0.9,1,1.6,2.1,2,3.2c2.5-1.4,4.7-3.4,6.3-5.8l-0.2,5.2l-2.8,0l-0.2,5.2l2.6,0
			l0,0.9l-4.9-0.1c0,0.6-0.2,1.2-0.3,1.7l6.8,0.1l0.2-2.6l6.5,0.2c1.5,0,2.6-1.1,2.6-2.6c0-1.3-1.1-2.6-2.6-2.6l-6.4-0.2l0.4-8.7
			c0.4-1,1-2.3,0.9-3.3c2.5-1.7,4.7-4,6.3-6.6c6.9-2.3,10.7-9.2,13.3-15.4c2.1-6.1-5.3-9.4-9.6-11.6c0.7-1.9,0-3.8-0.8-5.5
			c-3.1-6.4-9-11-15.6-13.8c2.1-3.9-8.7-6.2-11.3-6.5c-3.1-0.3-6.1-0.5-9-0.1c0.2-1.7,1.2-4.8-1.3-5.5c-7.3-1.1-15,0.1-21.3,4
			c0.5-1.7-0.3-3.1-2-3.2c-9.9-0.5-22.1,3.1-25,13.7l-10,13.6L7.3,36l9,19.3L2.7,70.9z M97.6,8.6c-0.8,9.7-8,18.1-17.4,20.5
			c-0.9,0.4-1.7,0.1-2.6,0c3.1-0.5,5.7-2.3,8-4.1c2.3-1.9,4.7-3.7,6.8-5.9c1-1.2,1.9-2.3,2.8-3.5c0.4-0.4-0.4-0.9-0.7-0.4
			c-0.6,0.9-1.2,1.6-1.8,2.3c-2.7,3.2-6,5.8-9.3,8.2c0.1-0.1,0.1-0.1,0.1-0.1c-1.2,0.7-2.5,1.4-3.8,2c-0.9,0.3-1.8,0.6-2.8,0.7
			c-0.3,0.1-0.4,0.4-0.3,0.7c-1.7-0.2-3.3-0.3-4.9-0.2c5.6-5.8,12.5-11.5,19.2-14.9c-5.1,1.5-10.4,3.2-14.9,6.1
			c0.9-2,1.6-4.1,2.2-6.1c3.2-1.7,6-3.4,9.5-4.4C91.1,8.5,94.4,8.1,97.6,8.6z M89.7,41.7c-5.1-3.1-11.3-4.9-17.3-3.7
			c-2.2-1.8-4.6-3.4-7.2-4.6c10.4-3.1,22.4,0.2,29.7,8.2c0.4,0.7-0.5,1.4-1,2c-6,5.8-14.5,8-22.6,8.2c1.6-0.9,3.2-1.9,5-2.7
			c0.9-0.4,1.9-0.9,2.8-1.4c0.7-0.6,1.3-2.2,0.3-2.9c-1.3-1-2.2-2.5-3.5-3.5c4.4-0.8,9.2-0.9,13.4,0.9C89.6,42.3,89.7,42,89.7,41.7z
			 M115.1,45.3c-5.1-2.4-10.6-5.5-16.3-4c-0.1-1.9-1.6-3.5-2.9-4.7c3.2-0.1,6.6-1.1,9.5-2.5c3.2,1.6,6.4,3.3,9.3,5.5
			c2.2,1.8,7.1,4.1,4.9,7.5c-3.1,5.2-8.7,8.5-14.2,10.5c-4-3.4-8.8-5.8-13.9-7.3c1.5-0.9,2.9-1.9,4.3-3c0.9-0.1,1.8-0.7,2.6-1.1
			c5.3-2.1,11.2-1.9,16.6-0.3C115.3,45.9,115.4,45.4,115.1,45.3z M85.3,30.6l-0.1,0c0.1,0,0.1-0.1,0.3-0.1
			C85.5,30.4,85.3,30.4,85.3,30.6z M117.5,16.8c-4.3,9.7-14,15.3-23.8,18.1c-1.2-0.9-2.5-1.6-3.8-2.4c5.6-6.2,13.1-11.8,21.2-13.7
			c0.3,0,0.3-0.6-0.1-0.6c-4.8,0.2-9.6,0.9-13.9,3.1c1.6-2.3,2.8-4.9,3.7-7.5c3.1-0.5,6.3-0.7,9.3,0.1
			C112.6,14.4,115,15.5,117.5,16.8z M132.3,36.5c-2.8,2.2-6,3.4-9.1,5.1c-3.2-3.7-7.2-6.3-11.4-8.7c5.8-1.4,12.4-1.3,17.9,1.5
			c0.3,0.1,0.6-0.3,0.3-0.4c-4.6-3.2-10.1-5.6-15.8-5.6c2.5-2.3,4.4-4.9,6-7.8c5.5,1.9,9.8,6.1,12.8,11
			C134.8,34.2,135,34.9,132.3,36.5z M128.6,50.1c3.7-1.3,7.4-2.4,11.2-2.1c0.1,0.1,0.1-0.3,0-0.3c-4.9-2.1-10.6-2.6-15.6-0.6
			c0.3-1,0.3-1.9,0.2-2.9c2-0.3,4.2-1.1,6.1-2.1c-0.2,0.9,1,0.6,1.4,0.7l0,0c1.3,0.2,2.3,0.6,3.3,1.3c0.1,0.1,0.4,0.2,0.6-0.1
			c0.6-1.2-3.9-2.2-4.6-2.2c1-0.6,1.9-1,2.8-1.6c-0.3,0.1-0.2,0.6,0.1,0.7c0.9,0.3,1.7,0.6,2.5,0.9c0.3,0.1,1.2,0.6,1.6,0.6l0,0
			c1,0.7,0.9,2,1.6,1.9c0.9-0.3-0.1-1.6-0.4-2c-1.2-1.2-3.6-2.4-5.2-2.4c0.4-0.1,0.7-0.4,1.2-0.7c1.7,0.7,8.8,4.6,8.7,6.5
			c-1.4,4.5-3.9,9-7,12.6c0.5-1.3,0.8-2.8,0.2-4.1c1.3-0.4,2.3-1.7,3.1-3c0.4-0.4-0.4-0.9-0.7-0.4s-0.6,0.9-0.9,1.3
			c-0.3,0.6-1.2,1.2-1.8,1.6c-0.4-0.6-0.9-1-1.2-1c0.3-0.1,0.4-0.4,0.7-0.6c-0.1,0.1-0.1,0.1-0.1,0.1c0.7-0.6,1.6-1.1,1.8-2
			c0-0.4-0.4-0.7-0.7-0.6c-0.4,0.1-0.3,0.6-0.6,0.9c0-0.1,0,0,0,0l0,0c-0.3,0.3-0.4,0.4-0.7,0.6c0.1-0.1,0.1-0.1,0.1-0.1
			c-0.4,0.3-1.2,0.6-1.2,1.2C133.1,50.9,130.9,50.3,128.6,50.1z M107.9,59.9c3.9-0.8,7.6-2.8,10.8-5.4c0.7,0.9,1.9,1.5,2.9,1.8
			c0.6,0.2,0.9-0.7,0.3-0.9c-0.4,0-0.7-0.2-1-0.3l0,0c-0.6-0.3-1.2-0.6-1.6-1c0,0,0.1-0.1,0.3-0.3c1,0.2,2.2-0.1,3.3-0.1
			c1.7,0,3.5,0.3,5.1,0.8c1,0.3,4.9,0.9,5.1,1.9c-2.6,9.3-12.1,15.1-21.5,15c1.9-1,3.4-2.4,1.8-4.5c6.1,0.4,12-2.5,16.2-6.8
			c0.1-0.3,0-0.6-0.3-0.4c-5.6,3.6-12.8,3.6-19.2,2.6C109.3,61.4,108.6,60.6,107.9,59.9z M83.1,63.3c5.4,2.8,11.5,3.8,17.4,3.4
			c0.1,0,0.1-0.3,0-0.3c-2.2-0.5-4.4-1.1-6.5-1.8c-5.6-2.4-11-5.6-15.3-9.9c2.8-0.1,5.4-0.8,7.9-1.8c9.1,2,17.1,7.9,22.5,15.4
			c-6.6,4.3-14.7,4.2-22.1,2.7C85.9,68.1,84.7,65.6,83.1,63.3z M68.8,70c-0.4-1.9-0.5-3.9-0.8-5.8c0.4,0.4,1,0.7,1.4,1.2
			c0.4,0.3,0.9-0.1,0.7-0.6c0.3,0.4,8.5,6.2,7.5,4.3c-5.2-3.7-8.6-9.1-11.3-14.7c0.1-0.1,0.4-0.1,0.6-0.3c1,0.3,2,0.6,3,1.2
			c-0.3,0.1-0.3,0.6,0,0.7c0.6,0.4,1.3,0.9,1.9,1.3c2.2,1.6,4,3.7,5.6,5.9c-0.1-0.1-0.1-0.1-0.1-0.1c0.4,0.4,0.7,1.8,1.4,1.5
			c0.1,0,0.3-0.4,0.2-0.6c-1.4-2.2-3.2-4.3-5.2-6c5.1,3.8,8.3,9.5,10,15.7C78.5,74.9,72.9,73.2,68.8,70z M69,64
			c-0.4-0.3-1-0.7-1.3-0.2c0-0.4,0-0.7-0.1-1.2C68,63.1,68.4,63.6,69,64z M67.5,76.2c1,0.2,1.9-0.9,1.9-1.9c1,0.7,2,1.3,3.2,1.8
			c0.3,0.4,0.7,0.7,1,1.2l1.5,6l-11.9,0.5L49.1,74l-5.4-35.1l5.4-0.4c-0.3,1.6-0.5,3.5-0.2,5.1c0,2.6,1,5.2,2.5,7.3
			c-1.2,2-1.4,4.8-1.2,7.1C50.5,67.4,58.4,75.4,67.5,76.2z M63.9,63.5c0.4,2.8,0.5,5.5,1.1,8.2C59,69.9,54.4,64.4,54,58.2
			c1.1,2,2.7,4.1,4.3,5.9c0.1,0.3,3.5,3.8,3,2.4c-1.3-1.6-2.4-3.4-3.1-5.3c0.1,0.3,0.4,0.7,0.6,1c0.3,0.6,1.2,0.2,0.9-0.4
			c-0.4-0.9-0.9-1.6-1.3-2.5c-0.1-0.3-0.6-0.3-0.7-0.2c-0.4-1.5-0.7-2.9-1-4.4c1,0.4,2.2,0.6,3.3,0.6c1.6,1.5,2.6,3.4,3.1,5.4
			c-0.6-1.6-1.6-3.1-2.7-4.4c-0.4-0.4-1.2,0.1-0.7,0.6c1,1.2,1.9,2.5,2.4,4c0.4,0.9,0.6,1.8,0.7,2.8c0.1,0.4,0.7,0.4,0.9,0.2
			C63.9,63.8,63.9,63.7,63.9,63.5z M60.1,35c-0.6,0-2.8-0.3-1.9,0.9c0.9,0.2,1.7-0.1,2.6,0.2l-0.1,0c1,0.2,1.9,0.5,2.8,0.9l0,0
			c1,0.6,2,1.2,2.9,1.8c1.2,0.9,2.3,1.8,3.5,2.5c0.1,0.1,0.4,0,0.6-0.1s0-0.4-0.1-0.6c-1.4-1-2.9-2.2-4.5-3.2c3.6,2.1,6.8,4.7,9.4,8
			c-5.1,2.3-9.7,6.7-15.5,6.2c-2.6-0.2-4.8-1.8-6.2-4c-0.1-0.9-0.1-2-0.3-2.9c4.8,3,11,2.9,16.1,0.8c0.1,0,0.1-0.3-0.1-0.3
			c-6,1.1-11.9-1.7-16.1-5.8c0.1-0.3,0.2-0.6,0.3-0.9C54.6,35.5,57.4,34.5,60.1,35z M58.6,17.9c-1.3,1.3-2.5,2.7-3.2,4.5
			c1-9.3,11.3-13,19.5-12.7c-1,7.4-6.7,17.4-14.5,19c3.7-2.1,6.7-5.2,9.1-8.8c0.6-0.9,1.2-1.7,1.6-2.6c0.3-0.4,0-0.9-0.4-0.7
			c-0.3,0-0.3,0.3-0.4,0.4c-0.9,1.6-2.1,3.3-3.3,4.8l0,0c-1.6,1.9-3.4,3.6-5.4,5c0.1-0.1,0.1-0.1,0.1-0.1c-0.4,0.3-0.9,0.6-1.3,0.9
			c0.3-4.9,4.3-9.3,8.1-12.1c0.4-0.3,0-0.7-0.3-0.6c-5.3,2.3-11.4,5.1-12.1,11.7c-0.3-0.7-0.4-1.5-0.6-2.3c0.3-0.1,0.1-0.3,0.3-0.4
			c0.9-2,2.1-3.8,3.5-5.2C59.9,18.1,59.1,17.3,58.6,17.9z"/>
		<path id="lola-anim-s-path4" d="M29.6,71.1c7.7,0.1,14,6.3,14,14l-1.7,0c-0.4-16.2-24-16.3-24.4-0.1l-1.7,0
			C15.4,77.5,22.2,70.9,29.6,71.1z"/>
		<polygon id="lola-anim-s-polygon2" points="19.6,54.2 13.2,40.4 35.5,38.2 28.8,53.1 		"/>
		<polygon id="lola-anim-s-polygon3" points="36.9,39.1 39.7,39 42.3,51.9 30.5,53.1 		"/>
		<polygon id="lola-anim-s-polygon4" points="28.3,54.7 5.8,70.9 18.9,56 		"/>
		<path id="lola-anim-s-path5" d="M12.6,81.6l-1.8,1.6l-4-10.4l2.9,0.3C14.2,73.5,15.9,78.7,12.6,81.6z"/>
		<path id="lola-anim-s-path6" d="M43.3,59.9c-0.4,0-15.6,0.6-16.3,0.6c-0.3,0-0.6-0.3-0.6-0.6c0-0.3,0.3-0.6,0.6-0.6
			c0.1,0,15.9-0.6,16.2-0.6C43.9,58.8,44,59.8,43.3,59.9z"/>
		<path id="lola-anim-s-path7" d="M43.8,62.7c-0.4,0-20.8,0.9-21.2,0.9c-0.3,0-0.6-0.3-0.6-0.6c0-0.3,0.3-0.6,0.6-0.6
			c0.1,0,20.8-0.9,21.1-0.9C44.3,61.6,44.4,62.6,43.8,62.7z"/>
		<path id="lola-anim-s-path8" d="M44.4,65.5c-0.4,0-25,1-26.2,1c-0.3,0-0.6-0.3-0.6-0.6c0-0.3,0.3-0.6,0.6-0.6c0.3,0,25.8-1,26.1-1
			C44.8,64.3,45,65.3,44.4,65.5z"/>
		<path id="lola-anim-s-path9" d="M44.8,68.4c-0.4,0-30.3,1.1-31.7,1.3l0-1.2c0.3,0,31.3-1.3,31.6-1.3
			C45.4,67.2,45.5,68.3,44.8,68.4z"/>
		<path id="lola-anim-s-path10" d="M52.7,80.1c-1,0-9-0.1-9.2-0.1c-0.3,0-0.6-0.3-0.6-0.6c0-0.3,0.3-0.6,0.6-0.6c0.1,0,6,0.1,9,0.1
			C53.1,79.1,53.2,80,52.7,80.1z"/>
		<path id="lola-anim-s-path11" d="M54.8,82c-1,0-10-0.3-10.2-0.1c-0.3,0-0.6-0.3-0.6-0.6c-0.4-1,7-0.2,10.6-0.3
			C55.4,81,55.4,81.9,54.8,82z"/>
		<path id="lola-anim-s-path12" d="M57.1,83.8c-1.2,0-10.9-0.3-11.1-0.3c-0.3,0-0.6-0.3-0.6-0.6c-0.4-1.2,7.6-0.2,11.5-0.3
			C57.7,82.8,57.7,83.7,57.1,83.8z"/>
		<path id="lola-anim-s-path13" d="M60.2,85.7c-1.3,0-12.9-0.3-13.1-0.3c-0.3,0-0.6-0.3-0.6-0.6c0-0.3,0.3-0.6,0.6-0.6
			c0.1,0,12.9,0.3,12.9,0.3C60.6,84.6,60.7,85.6,60.2,85.7z"/>
		<path id="lola-anim-s-path14" d="M92.7,17.1L92.7,17.1L92.7,17.1L92.7,17.1z"/>
		<path id="lola-anim-s-path15" d="M92.7,17.1L92.7,17.1L92.7,17.1z"/>
		<path id="lola-anim-s-path16" d="M87.9,19.7c-2.2,1.9-4.5,3.4-7,4.7c-0.6,0.1-2.5,1.6-2.8,0.8c-0.1-0.1,0-0.6,0.2-0.6
			c2.2-1,4.2-2.1,6.3-3.4c0,0,0,0-0.1,0.1c1-0.7,1.9-1.4,2.8-2.2C87.8,18.7,88.4,19.3,87.9,19.7z"/>
		<path id="lola-anim-s-path17" d="M84.9,19.5c-0.7,0.9-1.8,1.6-2.9,2c-0.4,0.1-1.2,0.9-1.6,0.3c-0.1-0.1,0-0.6,0.2-0.6
			c0.9-0.4,1.9-0.9,2.6-1.4c0,0,0,0-0.1,0.1c0.4-0.3,1-1,1.5-1.1C85,18.8,85.2,19.2,84.9,19.5z"/>
		<path id="lola-anim-s-path18" d="M84.3,14.3c-1.8,0.4-3.6,1-5.1,2c-0.4,0.3-0.7,0.9-1.3,0.4c-0.1-0.1-0.1-0.4,0-0.7
			c1.8-1.6,4-2.1,6.1-2.7C84.8,13.3,84.9,14.1,84.3,14.3z"/>
		<path id="lola-anim-s-path19" d="M67.1,21.6L67.1,21.6L67.1,21.6z"/>
		<path id="lola-anim-s-path20" d="M63.3,23.9c-0.4,0.3-0.9,0.9-1.5,1c-0.4,0-0.6-0.6-0.3-0.9c1.3-1,2.5-2,3.7-3.2
			c0.4-0.3,1-1.4,1.6-0.9C67.7,20.6,63.9,23.4,63.3,23.9z"/>
		<path id="lola-anim-s-path21" d="M58.1,19.9L58.1,19.9L58.1,19.9z"/>
		<path id="lola-anim-s-path22" d="M63.4,36.9L63.4,36.9L63.4,36.9z"/>
		<path id="lola-anim-s-path23" d="M63.9,39.1L63.9,39.1C63.9,39.2,63.9,39.2,63.9,39.1z"/>
		<path id="lola-anim-s-path24" d="M65.7,40.1c-1.7-1.2-3.8-1.9-5.9-2.4c-0.7,0.7-1.2-1-0.3-1c1.9,0.3,3.6,0.9,5.4,1.8
			c0.4,0.3,0.9,0.4,1.3,0.7C66.8,39.7,66.2,40.5,65.7,40.1z"/>
		<path id="lola-anim-s-path25" d="M57.9,40c0.7,0.6,1.6,1,2.5,1.5l0,0c1.7,0.9,3.8,1.3,5.7,1.7l0,0c0.3,0,0.6,0.2,0.4,0.4
			c0,0.3-0.3,0.4-0.4,0.4c-1.7-0.3-3.3-0.6-5.1-1.4c-1.4-0.6-2.9-1.3-4-2.5c-0.4-0.4-2.3-2.2-1.4-2.6c0.3-0.1,0.4,0,0.6,0.2
			C56.4,38.7,57.3,39.6,57.9,40z"/>
		<path id="lola-anim-s-path26" d="M60.3,41.5L60.3,41.5L60.3,41.5z"/>
		<path id="lola-anim-s-path27" d="M62.2,39.8c0.4,0.3,1.3,0.3,1.2,0.9c-0.1,0.3-0.3,0.4-0.6,0.3c-1-0.4-2.2-0.8-3.2-1.2
			c-0.4-0.3-1.3-0.3-1.2-0.9c0.1-0.3,0.3-0.4,0.6-0.3C60.2,39,61.2,39.5,62.2,39.8z"/>
		<path id="lola-anim-s-path28" d="M61.4,48.2c-2.6,0-5.2-0.9-7.5-2.3c-0.4-0.3,0-1.2,0.4-0.7c0.4,0.3,1,0.6,1.6,0.9c0,0,0.1,0,0,0
			c1.2,0.4,2.3,0.9,3.5,1.1l0,0c0.7,0.2,1.5,0.2,2.2,0.2C62.2,47.3,62.2,48.4,61.4,48.2z"/>
		<path id="lola-anim-s-path29" d="M54.9,47.4c1.2,0.6,2.2,1.2,3.5,1.6c0.4,0.3,1.5,0.3,1.3,1c-0.1,0.3-0.3,0.4-0.6,0.3
			c-1.3-0.5-2.5-0.9-3.6-1.6c-0.3-0.1-0.7-0.3-1-0.6C53.9,48,54.3,47.1,54.9,47.4z"/>
		<path id="lola-anim-s-path30" d="M83.5,37.5c-1.2-0.3-2.3-0.6-3.5-0.9l0,0c-1.6-0.3-3.3-0.5-5.1-0.3c-0.9,0.1-1.6,0.3-2.3,0.4
			c-0.3,0.1-0.6-0.2-0.6-0.3c0-0.3,0.2-0.4,0.3-0.6c2.9-0.8,6.1-0.5,9,0.1c0.9,0.2,1.6,0.5,2.5,0.6c0.3,0,0.4,0.3,0.3,0.6
			C83.9,37.4,83.8,37.5,83.5,37.5z"/>
		<path id="lola-anim-s-path31" d="M79.3,34.7c-0.1,0.1-0.1,0.1-0.3,0.1c-1.2-0.2-2.3-0.3-3.5-0.3c-1.2,0-2.2,0.1-3.2,0.4
			c-0.6,0.1-0.7-0.7-0.1-0.9C72.6,33.8,80.6,33,79.3,34.7z"/>
		<path id="lola-anim-s-path32" d="M85.1,42.5c-0.4-0.2-0.9-0.3-1.5-0.3l0.1,0c-1.3-0.3-2.6-0.3-3.9-0.2c-0.6,0-1.5,0.4-1.6-0.2
			c-0.1-1.5,6.3-0.5,7.1-0.2C85.9,41.8,85.6,42.6,85.1,42.5z"/>
		<path id="lola-anim-s-path33" d="M79.1,43c1.3-0.4,2.8-0.1,4.2,0.2c0.6,0.2,0.3,1-0.3,0.9c-0.3-0.1-0.6-0.2-0.9-0.2l0.1,0
			c-0.9-0.2-1.9-0.2-2.8-0.2C78.9,43.9,78.8,43.3,79.1,43z"/>
		<path id="lola-anim-s-path34" d="M89.1,47.2c-1.8,0.6-12.1,5.1-12.8,2.9c0-0.3,0.3-0.4,0.4-0.4c0.6,0,1,0,1.6,0
			c2.3-0.3,4.5-1.3,6.7-2l0,0l0.1,0l0,0c1.2-0.4,2.3-0.8,3.5-1.3c0.1,0,0.3-0.1,0.3,0C89.4,46.5,89.4,47.1,89.1,47.2z"/>
		<path id="lola-anim-s-path35" d="M82.5,46.7L82.5,46.7c0,0,0.1-0.1,0.3-0.3c0.4-0.4,1,0.3,0.6,0.7c-0.7,0.7-1.9,1.1-2.9,1.4
			c-0.6,0-1.3,0.9-1.7,0.1c-0.1-0.1,0-0.6,0.2-0.6C80.2,47.5,81.5,47.4,82.5,46.7z"/>
		<path id="lola-anim-s-path36" d="M85.7,45.8c-1.5-0.2-2.8-0.3-4.2-0.3c-0.6-0.2-1.6,0.3-1.6-0.6c0-0.3,0.3-0.4,0.4-0.4
			c1.5,0,2.8,0.2,4.2,0.2c0.6,0.2,1.6-0.1,1.6,0.6C86.2,45.7,86,45.9,85.7,45.8z"/>
		<path id="lola-anim-s-path37" d="M91.7,61L91.7,61L91.7,61z"/>
		<path id="lola-anim-s-path38" d="M91.7,61L91.7,61L91.7,61z"/>
		<path id="lola-anim-s-path39" d="M98.4,64.6c-0.3,0.1-0.6,0.1-0.7-0.2c-4.6-1.5-9-3.6-12.9-6.4c-1-0.7-2.2-1.5-3.2-2.2
			c-0.3-0.1-0.9-0.4-0.6-0.9c0.1-0.1,0.4-0.3,0.6-0.1c3.6,2.4,7.1,5.2,11.3,6.8c1.7,0.7,3.3,1.3,5.1,1.9c0.3,0.1,0.7,0.2,0.7,0.6
			C98.6,64.3,98.5,64.5,98.4,64.6z"/>
		<path id="lola-anim-s-path40" d="M91.7,61L91.7,61L91.7,61z"/>
		<path id="lola-anim-s-path41" d="M92.3,58.6c-0.3-0.3-0.7-0.3-1.2-0.6c-1.4-0.6-2.6-1.3-3.9-2.2c-1-0.6-1.9-1.6-3-1.8
			c-0.6-0.2-0.7,0.9-0.2,0.9l0,0c0.1,0,0.3,0.1,0.4,0.2l0,0c2.3,1.5,4.6,3.1,7.2,4.2C92.2,59.3,92.6,58.7,92.3,58.6z M84.2,54.7
			L84.2,54.7C84.2,54.7,84.3,54.7,84.2,54.7z M90.9,57.7L90.9,57.7L90.9,57.7z"/>
		<path id="lola-anim-s-path42" d="M84.6,54.9L84.6,54.9L84.6,54.9z"/>
		<path id="lola-anim-s-path43" d="M87.6,53c-0.4-0.2-0.7,0.4-0.6,0.7s0.6,0.4,0.9,0.6l0,0c1,0.6,2.3,1,3.3,1.8l0,0
			c0.1,0.3,0.4,0.4,0.7,0.3C93.4,55.2,88.1,53.7,87.6,53z M91,55.9L91,55.9L91,55.9z"/>
		<path id="lola-anim-s-path44" d="M91.2,56.1L91.2,56.1L91.2,56.1L91.2,56.1z"/>
		<path id="lola-anim-s-path45" d="M72.5,58.1C72.5,58.2,72.5,58.2,72.5,58.1C72.5,58.2,72.5,58.2,72.5,58.1z"/>
		<path id="lola-anim-s-path46" d="M72.5,58.1L72.5,58.1L72.5,58.1z"/>
		<path id="lola-anim-s-path47" d="M70.9,59.2C71.1,59.2,70.9,59.2,70.9,59.2L70.9,59.2z"/>
		<path id="lola-anim-s-path48" d="M75.1,62.8c-0.1,0.1-0.4,0.1-0.7,0c-1-1.2-2-2.3-3.2-3.2c-0.3-0.4-0.9-0.6-1.2-1
			c0-2,3.8,2.2,4.2,2.7C74.5,61.6,75.5,62.2,75.1,62.8z"/>
		<path id="lola-anim-s-path49" d="M70.9,59.1C70.9,59.1,70.9,59.2,70.9,59.1C70.9,59.2,70.9,59.1,70.9,59.1z"/>
		<path id="lola-anim-s-path50" d="M71,60.1c0.9,0.9,1.7,1.8,2.6,2.6c0.1,0.1,0.1,0.4,0,0.7c-0.1,0.1-0.4,0.1-0.7,0
			c-0.9-0.9-1.7-1.8-2.6-2.6C70,60.4,70.6,59.7,71,60.1z"/>
		<path id="lola-anim-s-path51" d="M61,61.7c-0.1,0.1-0.6,0-0.6-0.2c-0.4-0.9-0.9-1.8-1.1-2.6c-0.1-0.3,0-0.6,0.2-0.6
			c0.3-0.1,0.6,0,0.6,0.2c0.4,0.9,0.9,1.8,1.1,2.6C61.3,61.3,61.3,61.6,61,61.7z"/>
		<path id="lola-anim-s-path52" d="M68.9,68.1c-0.4-0.4,0.3-1,0.7-0.6c0.6,0.6,1.6,1.6,2.2,1.9c1,0.9,2.3,1.6,3.5,2.2l0,0
			c0.9,0.4,1.9,0.7,2.9,0.9l-0.1,0c0.6,0.3,2.2-0.1,2.2,0.6c0,0.3-0.3,0.4-0.4,0.4C75.4,73.7,71.7,71.2,68.9,68.1z"/>
		<path id="lola-anim-s-path53" d="M73.9,69.6c-1.5,0.1-2.7-1.3-3.8-2.2c-0.4-0.4,0.3-1,0.7-0.6c0.3,0.4,0.7,0.7,1.2,1
			c0.1,0.1,0.7,0.6,1.2,0.7c0.3,0.1,0.9,0.2,1,0.4C74.2,69.1,74.2,69.4,73.9,69.6z"/>
		<path id="lola-anim-s-path54" d="M115.4,49.1c0.4-0.3,0.6-1.3,1.3-1c0.1,0.1,0.3,0.4,0.1,0.6c-1.6,2.3-3.8,4.3-6.3,5.8
			c-0.6,0.4-6,3.1-6.1,2c0-0.3,0.2-0.4,0.3-0.6c0.7-0.1,1.5-0.4,2-0.7c1.6-0.6,3.2-1.4,4.7-2.4c0,0,0,0-0.1,0.1
			c1.3-1,2.6-2.2,3.7-3.5l0,0C115.2,49.2,115.4,49.1,115.4,49.1z"/>
		<path id="lola-anim-s-path55" d="M109.3,52.1c-1.9,1-4,2.4-6.1,2.4c-0.3-0.1-0.3-0.7,0.2-0.9c0.7-0.1,1.3-0.3,1.9-0.4
			c1.6-0.7,3.2-1.4,4.5-2.6c0.1-0.1,0.3-0.1,0.3-0.1C111.3,50.9,109.7,51.8,109.3,52.1z"/>
		<path id="lola-anim-s-path56" d="M104.6,51c-2,0.6-4.1,0.5-6.3,0.1l0,0c-0.4-0.2-1.3,0.1-1.3-0.6c0-0.3,0.3-0.4,0.4-0.4
			c0.4,0,1,0.2,1.5,0.2l-0.1,0c2,0.3,4.7,0.5,6.3-0.7c0.4-0.4,1,0.3,0.6,0.7C105.5,50.6,105,50.9,104.6,51z"/>
		<path id="lola-anim-s-path57" d="M104.6,47.2c-1.3,0.1-2.6,0.1-3.8,0.1l0.1,0c-0.4,0-1,0.4-1.5,0.1c-0.3-0.1-0.3-0.7,0.2-0.9
			c1.5-0.4,2.9-0.1,4.4-0.4c0.3,0,0.6-0.1,0.9,0C105.1,46.6,105.1,47.2,104.6,47.2z"/>
		<path id="lola-anim-s-path58" d="M111,38.8c-0.3,0.1-0.6,0-0.7-0.3c-1.4-0.9-2.7-2.1-4.2-2.8l0,0c-1-0.3-0.7-1.2-0.1-1
			c1.6,0.6,3,1.8,4.5,2.8C110.9,37.8,111.6,38.4,111,38.8z"/>
		<path id="lola-anim-s-path59" d="M104.3,36.4c-0.3-0.3-1-0.6-1.3,0c-0.1,0.3,0.3,0.7,0.6,0.6c0.4,0.2,0.9,0.4,1.3,0.6
			c0.7,0.3,2.2,1,3,1.6c0.4,0.9,1.9-0.1,0-1C106.8,37.5,105.5,36.9,104.3,36.4z M108.7,38.8L108.7,38.8L108.7,38.8L108.7,38.8z
			 M108.1,39.4L108.1,39.4L108.1,39.4z M103.4,37L103.4,37L103.4,37z M103.7,36.7L103.7,36.7L103.7,36.7z M103.9,36.6L103.9,36.6
			L103.9,36.6L103.9,36.6z"/>
		<path id="lola-anim-s-path60" d="M104.9,39.5L104.9,39.5c0.6,0.2,1.3,0.2,2.2,0.2c0.1,0,0.3,0.1,0.3,0.1c0.7,1.5-2.8,0.6-3.4,0.5
			c-1.5-0.3-2.9-0.9-4.3-1.6c-0.3-0.1-0.4-0.3-0.3-0.6c0.1-0.3,0.3-0.4,0.6-0.3C101.5,38.6,103.1,39.2,104.9,39.5z"/>
		<path id="lola-anim-s-path61" d="M105.7,28c-3.7,2.7-7.6,4.9-12,5.8c-0.4,0.1-1,0.3-1.2-0.2c0-0.3,0.2-0.4,0.3-0.6
			c1-0.1,2-0.4,2.9-0.8c3.2-1,6.1-2.7,8.8-4.6c0,0,0,0-0.1,0.1c2.5-1.9,5-3.9,7.2-6c0.4-0.4,1,0.3,0.6,0.7
			C110.3,24.4,108.1,26.3,105.7,28z"/>
		<path id="lola-anim-s-path62" d="M102.4,27.5c-2.6,1.6-5.4,2.9-8.3,3.5c-0.6,0.1-0.7-0.7-0.3-0.9c2.5-0.6,4.8-1.5,7-2.8
			c0.4-0.3,0.7-0.4,1.2-0.7C102.4,26.4,102.8,27.3,102.4,27.5z"/>
		<path id="lola-anim-s-path63" d="M100.2,26.2c-1.2,0.4-2.3,0.8-3.4,1.4c-0.6,0.3-1-0.6-0.4-0.9c0.9-0.3,3.2-1.6,3.9-1.4
			C100.8,25.6,100.7,26.1,100.2,26.2z"/>
		<path id="lola-anim-s-path64" d="M107.7,16.6c-0.1,0.1-0.1,0.1-0.3,0.1c-0.7-0.2-1.3-0.2-2,0c-1.7,0.3-3.4,0.5-5,1.1
			c-0.6,0.7-1.3-0.6-0.4-0.9C100.6,16.5,108.9,14.4,107.7,16.6z"/>
		<path id="lola-anim-s-path65" d="M105.6,14.1c-0.3,0.1-0.6,0.1-0.9,0.1c-1.2,0.1-2.2,0.3-3.4,0.7c-0.3,0.1-0.6-0.2-0.6-0.3
			c-0.3-0.9,2.8-1.1,3.4-1.3c0.4,0,1-0.3,1.3,0C105.7,13.5,105.7,13.9,105.6,14.1z"/>
		<path id="lola-anim-s-path66" d="M101.8,18.1c0.6-0.1,0.9,0.7,0.3,0.9c-0.7,0.1-1.5,0.3-2.2,0.4c-0.3,0-0.6-0.2-0.6-0.3
			C99,18.3,101.3,18.2,101.8,18.1z"/>
		<path id="lola-anim-s-path67" d="M128,28c-0.3,0-0.7-0.2-0.7-0.4c-1.3-1.2-2.9-2.2-4.5-3c-0.6-0.3-2-0.9-2.9-1
			c-0.6-0.2-0.3-1,0.3-0.9c1.2,0.3,2.3,0.8,3.5,1.3C124.2,24.1,130.2,27.6,128,28z"/>
		<path id="lola-anim-s-path68" d="M126.7,26.9L126.7,26.9L126.7,26.9z"/>
		<path id="lola-anim-s-path69" d="M126.7,26.9L126.7,26.9L126.7,26.9z"/>
		<path id="lola-anim-s-path70" d="M119.4,25.3c0.9-0.1,1.6,0.3,2.3,0.6c0.3,0,0.9,0.4,1.2,0.6c0.4,0.4,1-0.4,0.4-0.7
			c-1.2-0.7-2.3-1.3-3.5-1.5C119.2,24.1,118.7,24.8,119.4,25.3z M119.9,25.1C119.7,25.1,119.9,25.1,119.9,25.1
			S119.7,25.1,119.9,25.1z"/>
		<path id="lola-anim-s-path71" d="M121.6,27.2c0,1.2-1.5,0.1-2,0.1l0.1,0c-0.3,0-0.7-0.2-1-0.2c-0.6,0-0.6-1,0-0.9
			C119.4,26.3,121.3,26.4,121.6,27.2z"/>
		<path id="lola-anim-s-path72" d="M120.9,27.6L120.9,27.6C121,27.6,121,27.6,120.9,27.6z"/>
		<path id="lola-anim-s-path73" d="M127.3,36c-0.7-0.4-1.3-0.9-2-1.2l0,0c-1.3-0.6-2.6-1-3.9-1.2l0.1,0c-1.5-0.3-2.8-0.3-4.2-0.2
			l0.1,0c-0.6,0-1.5,0.6-1.7-0.2c0-0.3,0.2-0.4,0.3-0.6c1.6-0.3,3.2-0.3,4.8-0.1s3.2,0.6,4.6,1.4c0.6,0.3,3,1.2,2.6,1.9
			C127.9,36.1,127.6,36.1,127.3,36z"/>
		<path id="lola-anim-s-path74" d="M125.3,34.8L125.3,34.8L125.3,34.8z"/>
		<path id="lola-anim-s-path75" d="M117.6,35.6c0.1,0.6,1,0.2,1.5,0.2l-0.1,0c1-0.1,2,0,3.1,0.2c0.3,0,0.6-0.4,0.4-0.7
			c-0.6-0.7-3.3-0.5-4.4-0.3C117.7,34.8,117.6,35.1,117.6,35.6z M121.5,35.8L121.5,35.8L121.5,35.8z"/>
		<path id="lola-anim-s-path76" d="M121.3,37.8c0.6-0.3,3.4-0.8,3.3,0.2c-0.2,0.7-1.2,0.3-1.8,0.4c-0.6,0-1.3,0.4-1.7,0.3
			C120.7,38.4,120.9,37.8,121.3,37.8z"/>
		<path id="lola-anim-s-path77" d="M111.9,59.8c1.3,0.3,2.6,0.6,3.8,0.9l0,0c3.1,0.5,6.3,0.5,8.9-1.2c0.4-0.3,1,0.6,0.4,0.9
			c-3.1,2-7,1.8-10.5,1.1c-1-0.2-1.9-0.5-2.9-0.8C111.1,60.5,111.4,59.7,111.9,59.8z"/>
		<path id="lola-anim-s-path78" d="M116.6,59.1L116.6,59.1L116.6,59.1z"/>
		<path id="lola-anim-s-path79" d="M119.5,59.4c0.3,0,0.4,0.3,0.4,0.4c0,0.3-0.3,0.4-0.4,0.4c-1.5-0.2-2.9-0.3-4.4-0.6
			c-0.3,0-0.4-0.3-0.3-0.6c0.3-0.7,1.3,0,1.7,0l0,0C117.5,59.3,118.5,59.4,119.5,59.4z"/>
		<path id="lola-anim-s-path80" d="M120.7,57.9c-1.2,0.4-2.6-0.2-3.6-0.8c-0.6-0.3,0-1.2,0.4-0.7c0.1,0.1,0.4,0.3,0.6,0.3l0,0
			c0.4,0.2,0.9,0.3,1.2,0.4l-0.1,0c0.4,0,0.9,0.2,1.2,0C120.7,57.1,121,57.6,120.7,57.9z"/>
		<path id="lola-anim-s-path81" d="M118.1,56.7L118.1,56.7C117.9,56.7,118.1,56.7,118.1,56.7z"/>
		<path id="lola-anim-s-path82" d="M120.9,55.1C120.9,55,120.9,55,120.9,55.1C120.9,55,120.9,55,120.9,55.1z"/>
		<path id="lola-anim-s-path83" d="M120.9,55.1L120.9,55.1L120.9,55.1z"/>
		<path id="lola-anim-s-path84" d="M123.9,67.2c-2.1,1.4-4.4,2.1-6.9,2.3c-0.6,0-2.5,0.4-2.5-0.5c0-0.3,0.3-0.4,0.4-0.4
			c1.9,0.2,3.8-0.1,5.5-0.8c1-0.4,1.9-0.9,2.8-1.4c0.1,0,0.3-0.1,0.3,0C124.2,66.5,124.2,67.1,123.9,67.2z"/>
		<path id="lola-anim-s-path85" d="M118.7,67.4c-0.6,0.3-3.6,1.1-3.6,0c0.2-0.7,1-0.3,1.5-0.4c0.7,0,1.3-0.4,2-0.4
			C119,66.7,119,67.3,118.7,67.4z"/>
		<path id="lola-anim-s-path86" d="M85.7,66.1c0.4-0.6,1,0.2,1.5,0.3c1.2,0.6,2.5,0.9,3.8,1.1l-0.1,0c1.6,0.3,3.2,0.3,4.8,0.5
			c0.6,0.2,1.7-0.3,1.7,0.6c0,0.3-0.3,0.4-0.4,0.4c-1.5,0-2.9,0-4.4-0.2C91.5,68.7,84.9,67.4,85.7,66.1z"/>
		<path id="lola-anim-s-path87" d="M87.7,68.6c0.1,0,0.3,0.1,0.4,0.2c0.4,0.2,1,0.4,1.6,0.5l-0.1,0c0.7,0.2,1.6,0,2.3,0.2
			c0.3,0.1,0.3,0.7-0.2,0.9c-1.6,0.3-3.2-0.2-4.5-0.9C86.7,69,87.1,68.3,87.7,68.6z"/>
		<path id="lola-anim-s-path88" d="M88.1,68.7L88.1,68.7L88.1,68.7z"/>
		<path id="lola-anim-s-path89" d="M92.6,81.1c-2,0-4.1-0.8-5.8-1.8c-0.4-0.4-1.4-0.9-1.6-1.5c0.2-0.7,0.9-0.3,1.2,0l0,0l0,0
			c1.4,1.2,2.9,1.8,4.6,2.2l-0.1,0c0.6,0.2,1.2,0.2,1.6,0.2C93.4,80.1,93.2,81.1,92.6,81.1z"/>
		<path id="lola-anim-s-path90" d="M85.7,80c-0.6,0.7-1.6-0.7-2.2-1c-0.1-0.1-0.1-0.4,0-0.7c0.4-0.4,0.9,0.3,1.2,0.6
			C85.1,79.3,86,79.5,85.7,80z"/>
		<path id="lola-anim-s-path91" d="M94.4,76.3L94.4,76.3L94.4,76.3z"/>
		<path id="lola-anim-s-path92" d="M93.1,76C93.1,76,93.1,75.9,93.1,76C93.1,75.9,93.1,76,93.1,76z"/>
		<path id="lola-anim-s-path93" d="M93.1,76L93.1,76L93.1,76z"/>
		<path id="lola-anim-s-path94" d="M98.4,77.1c-2,0.3-4.2,0.5-6-0.5c-0.6-0.6,0.2-1.2,0.7-0.7c0.4,0.2,0.7,0.3,1.2,0.3l0,0
			c1.3,0.3,2.6,0,3.9-0.1C98.8,76.1,98.9,77,98.4,77.1z"/>
		<path id="lola-anim-s-path95" d="M134.1,43.5L134.1,43.5L134.1,43.5z"/>
		<path id="lola-anim-s-path96" d="M134.1,43.5C134.1,43.5,134.2,43.5,134.1,43.5C134.2,43.5,134.2,43.5,134.1,43.5z"/>
		<path id="lola-anim-s-path97" d="M130.6,44.9c-0.9-0.2-1.7-0.2-2.5,0l0.1,0c-0.3,0-0.9,0.1-1-0.3c0-0.3,0.2-0.6,0.3-0.6
			c0.6,0,3.6-0.4,3.5,0.5C131.2,44.6,130.9,44.9,130.6,44.9z"/>
		<path id="lola-anim-s-path98" d="M138.8,52.1L138.8,52.1L138.8,52.1z"/>
		<path id="lola-anim-s-path99" d="M136.9,50.3L136.9,50.3C136.9,50.3,136.9,50.2,136.9,50.3C136.9,50.2,136.9,50.2,136.9,50.3z"/>
		<g id="lola-anim-u-rdt" transform="translate(55.040001 0.400001)">
			<circle id="lola-anim-u-rt" cx="-26.1" cy="86.4" r="10.3"/>
			<circle id="lola-anim-s-circle1" class="st0" cx="-26.1" cy="86.4" r="2.6"/>
		</g>
		<g id="lola-anim-u-rt2" transform="translate(-.101519 0.513499)">
			<circle id="lola-anim-u-rt3" cx="109.3" cy="87.4" r="10.3"/>
			<circle id="lola-anim-s-circle2" class="st0" cx="109.3" cy="87.4" r="2.6"/>
		</g>
	</g>
</g>
</svg>
