<?xml version="1.0" encoding="utf-8"?>
<!-- Generator: Adobe Illustrator 25.4.1, SVG Export Plug-In . SVG Version: 6.00 Build 0)  -->
<svg version="1.1" id="svg2" xmlns:svg="http://www.w3.org/2000/svg"
	 xmlns="http://www.w3.org/2000/svg" xmlns:xlink="http://www.w3.org/1999/xlink" x="0px" y="0px" viewBox="0 0 150 150"
	 style="enable-background:new 0 0 150 150;" xml:space="preserve">
<style type="text/css">
	.st0{fill:url(#SVGID_1_);}
	.st1{fill:url(#SVGID_00000178911876780198654820000003315276929653741204_);}
	.st2{fill:url(#SVGID_00000106842225267841007780000004224622683082551459_);}
	.st3{fill:url(#SVGID_00000016038121264265864250000009231185059812498616_);}
	.st4{fill:url(#SVGID_00000047751465284358054600000003641453875189537416_);}
	.st5{fill:url(#SVGID_00000121261959034017319880000000534470711732377519_);}
	.st6{fill:url(#SVGID_00000019668045287917572510000010110715211747964861_);}
	.st7{fill:url(#SVGID_00000085951823396879824370000009443090835046634637_);}
	.st8{fill:url(#SVGID_00000052805682475555908660000011089505845414277002_);}
	.st9{fill:url(#SVGID_00000096033363084446205750000014907384800222845075_);}
	.st10{fill:url(#SVGID_00000178905943136475401010000002502126425828523157_);}
	.st11{fill:url(#SVGID_00000045617525071719976700000007952857220987941542_);}
	.st12{fill:url(#SVGID_00000103985976682836026330000009965903166064759426_);}
</style>
<g>
	
		<radialGradient id="SVGID_1_" cx="104.3145" cy="81.836" r="20.2496" gradientTransform="matrix(1 0 0 -1 0 150)" gradientUnits="userSpaceOnUse">
		<stop  offset="0" style="stop-color:#FFFFFF"/>
		<stop  offset="1" style="stop-color:#006400"/>
	</radialGradient>
	<path class="st0" d="M85.9,83.5c1.6-4,3.1-8.1,5.1-12c2.1-4,4.6-8.1,7.6-11.5c5.2-6,12-10.9,19.3-13.8c1.8,3.7,3.3,7.9,4.2,12
		c1,5.1,0.4,10.5-0.9,15.4c-4.5,1-8.7,2.8-12.6,5.4c2.1-3.6,3.3-7.2,4.3-11.2c1-3.7,1.3-7.5,1.9-11.4c0.1-0.6-0.9-0.7-1-0.1
		c-1.8,7.2-6.4,13.6-10.8,19.6c-4,5.4-8.7,10.2-14.1,14.2c-0.7-1.5-1.5-3-2.2-4.3C86.8,85,86.4,84.3,85.9,83.5z"/>
	
		<radialGradient id="SVGID_00000083767504034952312100000013063617596795923374_" cx="109.6656" cy="17.6974" r="15.8975" gradientTransform="matrix(1 0 0 -1 0 150)" gradientUnits="userSpaceOnUse">
		<stop  offset="0" style="stop-color:#FFFFFF"/>
		<stop  offset="1" style="stop-color:#006400"/>
	</radialGradient>
	<path style="fill:url(#SVGID_00000083767504034952312100000013063617596795923374_);" d="M96.1,132.5c2.5-3.3,5.8-6.1,9.3-8.4
		c6-4,13.3-6.7,20.7-7.2c-0.7,10.2-3.6,20.7-12.1,27l0,0c-4,3-9.3,4.5-14.4,3.4c-1-0.1-2.2-0.6-3.3-1c4-0.3,7.9-1.8,11.1-4.6
		c2.1-1.9,3.7-4.3,5.2-6.7c1.5-2.4,2.5-5.1,4-7.5c0.3-0.6-0.4-1-0.9-0.6c-1.6,2.1-3.4,3.7-5.4,5.5c-1.6,1.5-3.4,3-5.5,3.9
		c-3.7,1.8-7.6,3.6-11.5,2.7c0-0.3,0-0.6,0.1-0.9C93.7,135.8,94.8,134.2,96.1,132.5z"/>
	
		<radialGradient id="SVGID_00000065048788014566602230000015018441709923843464_" cx="112.0707" cy="50.2996" r="19.1827" gradientTransform="matrix(1 0 0 -1 0 150)" gradientUnits="userSpaceOnUse">
		<stop  offset="0" style="stop-color:#FFFFFF"/>
		<stop  offset="1" style="stop-color:#006400"/>
	</radialGradient>
	<path style="fill:url(#SVGID_00000065048788014566602230000015018441709923843464_);" d="M119.3,110.6c-3.4,0.7-6.9,1.8-10.2,3.1
		c0.7-0.9,1.3-1.9,1.9-2.8c4-6.7,6.9-13.8,9.6-21.1c0-0.1-0.1-0.3-0.3-0.1c-3.3,6.7-8.2,12.7-13.3,18.1c-4.2,4.3-8.2,8.4-12.7,12.3
		c0.3-3.4,0.3-7,0-10.5c0-0.7-0.1-1.5-0.1-2.1c0.1-0.4,0.3-0.9,0.4-1.5c1.8-5.1,4.5-9.9,8.1-13.9c6.9-7.6,16.9-12.3,27.3-12.7
		c0.1,5.4-0.7,10.9-2.4,16.2l0,0C125.6,101,122.5,105.5,119.3,110.6L119.3,110.6z"/>
	
		<radialGradient id="SVGID_00000050653628448250851760000013630258875220898953_" cx="75.5822" cy="76.0681" r="0" gradientTransform="matrix(1 0 0 -1 0 150)" gradientUnits="userSpaceOnUse">
		<stop  offset="0" style="stop-color:#FFFFFF"/>
		<stop  offset="1" style="stop-color:#006400"/>
	</radialGradient>
	<path style="fill:url(#SVGID_00000050653628448250851760000013630258875220898953_);" d="M75.6,73.9L75.6,73.9L75.6,73.9z"/>
	
		<radialGradient id="SVGID_00000156561032965736465830000004212209048101630379_" cx="68.8405" cy="88.212" r="21.531" gradientTransform="matrix(1 0 0 -1 0 150)" gradientUnits="userSpaceOnUse">
		<stop  offset="0" style="stop-color:#FFFFFF"/>
		<stop  offset="1" style="stop-color:#006400"/>
	</radialGradient>
	<path style="fill:url(#SVGID_00000156561032965736465830000004212209048101630379_);" d="M70.3,67.2c-0.4,2.4-1.3,4.9-2.5,7.2
		c-0.7,1.3-1.6,2.5-2.2,4v0.1c-1.9,2.1-3.9,4.3-5.4,6.7c-0.3-1-0.4-1.9-0.7-3c-1.3-4.6-3-9.3-5.4-13.6c-1.3-2.4-2.8-4.8-4.5-7
		c0.1-0.4,0.4-0.9,0.6-1.2c0.6-1.2,1.2-2.4,1.8-3.7c1.2-2.4,2.5-4.8,4.2-6.9c3.1-4.2,7.3-8.2,12-10.8c2.7-1.3,4.5-0.9,6.4,1.2
		c2.1,2.2,3.9,4.9,5.5,7.5c1.8,2.8,3.6,5.8,5.1,8.8c1,2.2,1.9,4.8,3,7c-0.9,1.6-1.6,3.1-2.4,4.9c-1.5,3.4-2.4,6.9-2.5,10.5
		c-1.2-1.5-2.7-3-4.2-4c-1-0.7-2.1-1-3.1-1.3c0.4-1.8,0.9-3.6,0.9-5.4c0.4-7.6-3.3-14.7-5.8-21.6c-0.1-0.4-0.9-0.1-0.7,0.3
		C71.7,53.7,71.7,60.6,70.3,67.2z"/>
	
		<radialGradient id="SVGID_00000113336174864616038120000008830101264796730019_" cx="72.1364" cy="44.5953" r="21.1197" gradientTransform="matrix(1 0 0 -1 0 150)" gradientUnits="userSpaceOnUse">
		<stop  offset="0" style="stop-color:#FFFFFF"/>
		<stop  offset="1" style="stop-color:#006400"/>
	</radialGradient>
	<path style="fill:url(#SVGID_00000113336174864616038120000008830101264796730019_);" d="M78.6,118.4c0-0.1,0-0.1,0.1-0.3
		c1.2-5.1,1.3-9.9,0.3-15.1c-0.4-2.4-1.2-4.8-1.9-7.2c-0.7-2.2-1.8-4.3-2.8-6.3c-0.1-0.4-0.7-0.1-0.6,0.3c2.4,7.2,1.8,15,0.1,22.3
		c-0.6-0.7-1.3-1.5-1.9-2.2c-1.2-1.2-2.5-2.4-3.6-3.7c-1.2-1.8-3.7-1-4.8,0.3c-1,1.3-1.8,3-2.7,4.5c-0.7,1.3-1.6,2.7-2.4,3.9
		c-0.9,1.3-1.8,2.7-2.5,3.9c0-0.4,0.1-0.9,0.1-1.5c0.3-1.9,0.4-3.9,0.7-5.8c0.6-4,1.8-7.9,3.1-11.7c2.5-6.6,6.4-12.6,11.7-17.5
		c1-0.9,2.1-2.4,3.6-1.5c1.3,0.9,2.2,2.4,3.1,3.6c2.1,2.8,3.9,5.8,5.4,9.1c3,6.4,4.8,13.3,4.8,20.5c0,3.6-0.3,7.2-1,10.6
		c-0.4,1.9-0.9,3.9-1.6,5.7v0.1c-1.2-3-2.7-6-4.3-8.7C80.2,120.8,79.3,119.6,78.6,118.4z"/>
	
		<radialGradient id="SVGID_00000159455388448871656500000015484490361452250004_" cx="37.7711" cy="70.9743" r="21.1138" gradientTransform="matrix(1 0 0 -1 0 150)" gradientUnits="userSpaceOnUse">
		<stop  offset="0" style="stop-color:#FFFFFF"/>
		<stop  offset="1" style="stop-color:#006400"/>
	</radialGradient>
	<path style="fill:url(#SVGID_00000159455388448871656500000015484490361452250004_);" d="M39,89.4c-1.6-3.4-3.4-6.9-4.5-10.6
		c-1-3.6-1.6-7.2-2.4-10.9c0-0.3-0.4-0.1-0.4,0l0,0c-0.7,4-0.6,8.1-0.3,12.1c0.3,3.9,0.7,7.8,1.9,11.5c0.6,1.8,1.3,3.6,2.1,5.4
		c-3.7-3-7.8-5.4-12.1-7.2c-0.7-6.1-1.3-12.4-0.3-18.7c0.9-6.1,3.1-12.4,6.9-17.5c6,4.9,11.2,10.6,15.1,17.4
		c2.2,3.9,4.3,7.9,5.8,12.1c0.7,2.1,1.3,4.2,1.8,6.3c0.1,0.9,0.3,1.8,0.4,2.7c-0.7,1.8-1.5,3.7-2.1,5.5c-0.7,2.4-1.3,4.8-1.6,7.2
		c-1.6-1.9-3.3-4-4.8-6.1C42.3,95.8,40.5,92.7,39,89.4z"/>
	
		<radialGradient id="SVGID_00000037683977505840240070000011708977018780475317_" cx="94.6839" cy="114.8709" r="17.88" gradientTransform="matrix(1 0 0 -1 0 150)" gradientUnits="userSpaceOnUse">
		<stop  offset="0" style="stop-color:#FFFFFF"/>
		<stop  offset="1" style="stop-color:#006400"/>
	</radialGradient>
	<path style="fill:url(#SVGID_00000037683977505840240070000011708977018780475317_);" d="M98.1,41.3C97,35,94.2,29,90.9,23.6
		c-0.3-0.4-0.9-0.1-0.7,0.3c2.5,5.5,3.3,11.7,2.8,17.7c-0.1,3-0.6,6-1.2,9c-0.1,1-0.4,2.1-0.9,3.1c-1.3-2.8-2.8-5.7-4.6-8.5
		c-1.6-2.7-3.4-5.2-5.4-7.6c-1-1.2-2.1-2.5-3.3-3.4c2.4-3.7,4.3-7.8,7-11.2c0.7-1,1.6-2.1,2.4-3.1c0.7-0.9,1.8-2.5,2.8-3
		c1.5-0.7,3.9,1.5,5.1,2.4c4.3,2.8,8.1,6.6,11.2,10.6c1.6,2.1,3,4.5,4,6.9c0.7,1.5,1.2,3.1,1.6,4.6c-4.9,2.4-9.4,5.4-13.5,9.1
		C98.8,47.3,98.7,44.3,98.1,41.3z"/>
	
		<radialGradient id="SVGID_00000171678972942919505360000007059588176803453117_" cx="69.1844" cy="18.4635" r="16.1543" gradientTransform="matrix(1 0 0 -1 0 150)" gradientUnits="userSpaceOnUse">
		<stop  offset="0" style="stop-color:#FFFFFF"/>
		<stop  offset="1" style="stop-color:#006400"/>
	</radialGradient>
	<path style="fill:url(#SVGID_00000171678972942919505360000007059588176803453117_);" d="M65.2,116.6c0.7-1.2,1.5-2.2,2.1-3.6
		c0.3,0.3,0.6,0.6,0.9,0.7c1,0.9,2.1,1.9,3,2.8c0.4,0.4,0.9,1,1.3,1.6c0.3,0.6,0.6,1,1.2,1.5c0.9,1.2,1.8,2.4,2.5,3.7
		c2.8,4.5,5.5,9.6,6.1,15c0.6,4.8-1.2,9.3-5.8,11.1c-0.4,0.1-0.9,0.3-1.3,0.4c-3.1-3.4-5.4-7.8-7-12.1c-0.7-2.2-1.3-4.6-1.5-6.9
		c-0.3-2.5-0.1-5.5,0.4-7.9c0.1-0.3-0.4-0.4-0.6-0.1c-1.2,2.7-2.2,5.1-2.7,7.9c-0.4,2.7-0.6,5.2-0.4,8.1c0.1,3.7,1.2,7.3,3,10.6
		c-0.1,0-0.3,0-0.4-0.1c-1.3-0.3-3-0.3-4.2-0.6c-3.4-2.4-5.8-6.3-6-10.6c-0.3-5.1,2.4-9.9,4.9-14.1C62.1,121.4,63.7,119,65.2,116.6z
		"/>
	
		<radialGradient id="SVGID_00000180340588965400568500000017855418722373425312_" cx="44.2103" cy="113.0062" r="18.2013" gradientTransform="matrix(1 0 0 -1 0 150)" gradientUnits="userSpaceOnUse">
		<stop  offset="0" style="stop-color:#FFFFFF"/>
		<stop  offset="1" style="stop-color:#006400"/>
	</radialGradient>
	<path style="fill:url(#SVGID_00000180340588965400568500000017855418722373425312_);" d="M55.8,16.3c0.6,0,0.6,0.1,0.9,0.7
		c1,2.2,1.5,5.2,1.9,7.8c0.4,2.7,0.9,5.5,0.7,8.4c-0.1,1.9-0.6,3.7-0.4,5.5c-3.3,3.1-6.1,7-8.2,11.1c-1.2,2.2-2.4,4.6-3,7.2
		c0,0.3-0.1,0.4-0.1,0.7c-1-1.3-2.2-2.5-3.6-3.7v-0.1c0.1-1.2-0.3-2.5-0.4-3.7c-0.4-4.6,0.1-9.6,0.9-14.1c0.9-4.6,2.5-9.9,5.5-13.6
		c0.3-0.3-0.3-0.9-0.6-0.4c-1.9,1.9-3.9,3.7-5.5,6c-1.6,2.2-3,4.5-4.2,7c-2.1,4-2.8,8.5-3,13.2c-0.3-0.3-0.7-0.4-1-0.7
		c-1.6-1-3.7-0.6-4.9,1c-0.6,0.7-1,1.5-1.6,2.2c0.1-0.9,0.1-1.8,0.3-2.5c0.4-3,1-6,1.9-8.8c3.3-9.9,11.2-17.8,21.1-21.6l0,0
		C53.1,17,54.8,16.1,55.8,16.3z"/>
	
		<radialGradient id="SVGID_00000101784309439056284480000008922761183422412197_" cx="69.4397" cy="133.6144" r="17.0256" gradientTransform="matrix(1 0 0 -1 0 150)" gradientUnits="userSpaceOnUse">
		<stop  offset="0" style="stop-color:#FFFFFF"/>
		<stop  offset="1" style="stop-color:#006400"/>
	</radialGradient>
	<path style="fill:url(#SVGID_00000101784309439056284480000008922761183422412197_);" d="M81.4,17.3c-2.4,4.3-4.6,9.7-5.2,15
		c-1.6-0.3-3.1,0-4.6,0.4c0.1-0.6,0.4-1.2,0.6-1.8c0.7-2.7,1.2-5.4,1-8.2c0-2.8-0.4-5.4-1-8.1c-0.6-2.5-1.8-4.9-2.7-7.3
		C69.3,7,68.8,7,68.8,7.4c0.4,2.4,0.1,4.9,0,7.3c-0.1,2.4-0.7,4.8-1.3,7c-0.3,1.3-0.7,2.8-1.2,4.2c-0.3-1.8-0.6-3.4-1.2-5.1
		c-1-3.1-2.4-6.7-5.5-8.4c-2.5-1.5-5.2-0.9-7.8,0.1c1-1,2.1-1.9,3.3-2.8c3.4-2.8,7.5-5.1,11.4-7.2c1.6-1,3.6-2.2,5.5-2.5
		c1.6-0.3,2.4,1.5,3.6,2.4C78.9,5.2,85,8.3,87,12.2c0,0.1,0.1,0.3,0.1,0.3C86.4,13.7,82,16.3,81.4,17.3z"/>
	
		<radialGradient id="SVGID_00000098917810239023848760000011643961044754939011_" cx="35.8808" cy="13.145" r="11.7857" gradientTransform="matrix(1 0 0 -1 0 150)" gradientUnits="userSpaceOnUse">
		<stop  offset="0" style="stop-color:#FFFFFF"/>
		<stop  offset="1" style="stop-color:#006400"/>
	</radialGradient>
	<path style="fill:url(#SVGID_00000098917810239023848760000011643961044754939011_);" d="M48.8,136.7c0,1.6,0.1,3.3,0.6,5.1
		c0,0.1,0.1,0.4,0.1,0.6c-0.1,0-0.4-0.1-0.6-0.1c-0.9-0.3-1.8-0.4-2.7-0.7c-1.9-0.4-3.7-0.9-5.5-1.6c-1.8-0.7-3.4-1.6-5.1-2.5
		c-0.9-0.6-1.6-1.2-2.4-1.8c-0.9-0.6-1.6-1.2-2.5-1.9c-0.3-0.3-0.7,0.1-0.4,0.4c0.6,0.9,1.2,1.8,1.9,2.7c0.6,0.7,1.3,1.5,2.1,2.1
		c1.5,1.5,3,2.8,4.6,4.2c1.5,1.2,3,2.4,4.6,3.4c-3.6-0.4-7-1.8-10.2-3.7c-5.4-3.4-9.4-9.1-11.1-15.4c4.5,1.2,9,1.6,13.5,2.5
		C40.7,131,45.5,133.1,48.8,136.7z"/>
	
		<radialGradient id="SVGID_00000023962279585955522220000005985948607691226787_" cx="35.8148" cy="38.4641" r="15.615" gradientTransform="matrix(1 0 0 -1 0 150)" gradientUnits="userSpaceOnUse">
		<stop  offset="0" style="stop-color:#FFFFFF"/>
		<stop  offset="1" style="stop-color:#006400"/>
	</radialGradient>
	<path style="fill:url(#SVGID_00000023962279585955522220000005985948607691226787_);" d="M21,96.1c6.9,2.4,13.8,6.1,19,11.1
		c3.1,2.8,5.7,6.4,7.8,10c1,1.8,2.1,3.7,2.8,5.5c0.4,1,0.6,2.1,0.9,3.3c-0.1,0.3-0.3,0.6-0.4,0.9c-0.7-0.4-1.5-0.7-2.2-1.2
		c-1.2-0.6-2.2-1.3-3.3-2.1c-2.2-1.5-4.5-2.8-6.4-4.5c-4.2-3.4-8.1-7.3-10.9-12.1c-0.3-0.4-0.9-0.1-0.7,0.3
		c2.4,5.2,5.1,10.3,8.7,14.7c0.4,0.6,1,1.3,1.6,1.9c-4-1-8.1-1.5-12.1-2.4c-0.7-1.5-1.6-2.8-2.2-4.2c-1.2-2.5-2.1-4.9-2.5-7.6
		C19.7,104.9,19.7,100.4,21,96.1z"/>
</g>
</svg>
