<?xml version="1.0" encoding="utf-8"?>
<!-- Generator: Adobe Illustrator 25.4.1, SVG Export Plug-In . SVG Version: 6.00 Build 0)  -->
<svg version="1.1" id="Capa_1" xmlns="http://www.w3.org/2000/svg" xmlns:xlink="http://www.w3.org/1999/xlink" x="0px" y="0px"
	 width="100px" height="100px" viewBox="0 0 100 100" style="enable-background:new 0 0 100 100;" xml:space="preserve">
<style type="text/css">
	.st0{fill:url(#SVGID_1_);}
	.st1{fill:url(#SVGID_00000081629673630780958150000013605546035706257046_);}
	.st2{fill:url(#SVGID_00000015316511604565610350000004207112861422444982_);}
	.st3{fill:url(#SVGID_00000117656545223221029000000017009276576538369456_);}
	.st4{fill:url(#SVGID_00000039134117203230839670000009582291693131520134_);}
	.st5{fill:url(#SVGID_00000043430002399509651580000001224730897627384706_);}
</style>
<g>
	<radialGradient id="SVGID_1_" cx="25.8742" cy="22.6639" r="13.7633" gradientUnits="userSpaceOnUse">
		<stop  offset="0" style="stop-color:#FFDDE1"/>
		<stop  offset="0.3842" style="stop-color:#D49400"/>
		<stop  offset="1" style="stop-color:#7F5C00"/>
	</radialGradient>
	<path class="st0" d="M33.9,6.2c0.6,0,0.9,0.5,1,1.4c0,6.2,0.5,11.6,1.4,16.4v0.4c0,1.3-3.9,3.1-11.7,5.5c-0.2,0.3-0.4,0.6-0.4,0.9
		v0.6c0,1.5,0.2,3.8,0.7,6.8v0.1c0,0.6-1.4,0.9-4.2,0.9h-2.8c-0.7,0-1.1-0.4-1.1-1.2c-0.2-4.3-0.3-6.9-0.5-7.8h0.1l-0.1-0.2
		c-0.5-12.8-0.8-19.7-0.8-20.8c0.1-1.1,0.7-1.7,1.7-1.7L22,7.7C25,7.7,28.9,7.2,33.9,6.2L33.9,6.2z M25.2,13.3l-0.5,11.5
		c2.3-1.2,3.5-2,3.5-2.4C27.9,20.9,26.9,17.9,25.2,13.3L25.2,13.3z"/>
	
		<radialGradient id="SVGID_00000129921225505277268420000018240179780037177498_" cx="48.252" cy="22.8446" r="14.2376" gradientUnits="userSpaceOnUse">
		<stop  offset="0" style="stop-color:#FFDDE1"/>
		<stop  offset="0.3842" style="stop-color:#FFC642"/>
		<stop  offset="1" style="stop-color:#7F5C00"/>
	</radialGradient>
	<path style="fill:url(#SVGID_00000129921225505277268420000018240179780037177498_);" d="M51.6,5.4h0.7c3,0.2,4.5,0.8,4.7,1.8
		c0,0.5,0.4,4.6,1.3,12.3c0.1,1.1,0.1,2,0.1,2.8c0,8-3.2,13.4-9.5,16.2c-1.2,0.5-3.4,1.1-6.5,1.7c-1.3,0-2.1-0.8-2.3-2.4v-0.1
		c0.1-1.8,0.2-2.7,0.2-2.9v-0.3c0-0.9-0.6-4-1.7-9.2c-0.3-1.5-0.5-3.1-0.5-4.7c0-7.5,3.4-12.4,10.1-14.7C49.5,5.6,50.6,5.4,51.6,5.4
		z M46.4,12.4c-0.7,1.5-1,3.7-1,6.6c0,4.5,1.3,9.4,3.9,14.9V34h0.2c1.1-2.3,1.6-4.6,1.6-6.9c0-4.9-1.4-9.5-4.2-13.8
		C46.7,12.9,46.5,12.6,46.4,12.4L46.4,12.4z"/>
	
		<radialGradient id="SVGID_00000070089812873459384700000003974222674003533202_" cx="71.9602" cy="22.8446" r="13.8117" gradientUnits="userSpaceOnUse">
		<stop  offset="0" style="stop-color:#FFDDE1"/>
		<stop  offset="0.3842" style="stop-color:#FFC642"/>
		<stop  offset="1" style="stop-color:#7F5C00"/>
	</radialGradient>
	<path style="fill:url(#SVGID_00000070089812873459384700000003974222674003533202_);" d="M64.2,6.6H66c5.1,0.2,8.7,0.3,11,0.3h0.3
		c2,0,3,0.3,3,1c0.4,0,0.7,3.6,0.8,10.8c0,4.2-0.6,6.8-1.7,7.9c-0.9,1-1.7,1.6-2.3,1.8v0.2c0.2-0.1,1-0.2,2.4-0.4
		c1.2,0.2,1.8,0.8,1.8,1.6c-0.1,0.8-0.1,1.3-0.1,1.5c0,1,0.5,3,1.5,6v0.1c0,1-0.9,1.5-2.8,1.5c-0.6,0.2-1.3,0.3-2.2,0.3h-0.5
		c-1.6-0.1-2.4-0.7-2.4-1.6v-0.1c0.2-0.8,0.3-1.5,0.3-2.1v-0.6c0-1.5-0.4-2.3-1.1-2.3c-0.2-0.1-0.5-0.1-0.8-0.1H73
		c-1.1,0-1.7,0.5-1.7,1.4v1.1c0,2.5-0.5,3.8-1.5,3.8c0,0.2-2.2,0.3-6.7,0.4c-1.3-0.2-1.9-0.7-1.9-1.7c0.4-3.4,0.5-10.2,0.5-20.1v-8
		C61.7,7.4,62.6,6.6,64.2,6.6z M70.2,14.6L70.2,14.6c-0.1,3.5-0.2,6.1-0.2,7.9c0,1.4,0.2,2.1,0.5,2.1c0.7,0,1.4-0.5,2.1-1.4
		c0.2-0.4,0.3-0.9,0.3-1.7v-2.8c0-1.5-0.8-2.7-2.3-3.6C70.6,14.9,70.4,14.7,70.2,14.6z"/>
	
		<radialGradient id="SVGID_00000010312700608192630240000013033405930789591956_" cx="27.7691" cy="78.1386" r="14.5017" gradientUnits="userSpaceOnUse">
		<stop  offset="0" style="stop-color:#FFDDE1"/>
		<stop  offset="0.3842" style="stop-color:#FFC642"/>
		<stop  offset="1" style="stop-color:#7F5C00"/>
	</radialGradient>
	<path style="fill:url(#SVGID_00000010312700608192630240000013033405930789591956_);" d="M27.9,61.7c7.7,0.1,11.6,0.2,11.6,0.5
		c0.4,0.6,0.5,1.4,0.5,2.5c-0.2,3.6-0.3,6.2-0.3,7.8c0,1.1-0.6,1.6-1.8,1.6h-0.5c-0.3,0-0.7,0-1.2-0.1L36,74.2c-1.2,0-2-0.9-2.2-2.8
		c-0.5-1.8-0.8-2.8-1.1-3c-0.2,3.8-0.2,6.8-0.2,8.8l-0.1,0.4c0.5,9.2,1.1,13.8,1.7,13.8c0.4,0.7,0.6,1.2,0.6,1.6
		c0,0.9-0.7,1.4-2.1,1.6h-0.3c-0.5,0-2.2-0.1-4.9-0.2l-1.2,0.1c-2.6,0-3.9-0.5-3.9-1.6v-0.2c0.6-2.9,1-5.3,1-6.9
		C23.1,79,23,75.4,22.9,74.9h0.1c-0.1-0.1-0.1-0.2-0.1-0.3c0-1.2-0.1-3.1-0.3-5.6h-0.1c-0.6,2-1,3.5-1,4.4c-0.4,1.2-1.2,1.8-2.5,1.8
		c-0.1,0-0.3,0.1-0.6,0.1c-1.9,0-2.8-0.8-2.8-2.4v-3.6c0-0.4,0-0.7,0.1-1c-0.1-0.3-0.1-0.7-0.1-1.1v-0.8c0-2.2,0.3-3.5,0.9-3.9
		C16.4,61.9,20.2,61.7,27.9,61.7z"/>
	
		<radialGradient id="SVGID_00000075123135475361428120000002337079703886418861_" cx="50.1916" cy="78.6441" r="13.1282" gradientUnits="userSpaceOnUse">
		<stop  offset="0" style="stop-color:#FFDDE1"/>
		<stop  offset="0.3842" style="stop-color:#FFC642"/>
		<stop  offset="1" style="stop-color:#7F5C00"/>
	</radialGradient>
	<path style="fill:url(#SVGID_00000075123135475361428120000002337079703886418861_);" d="M59,62.7c0.5,0.3,0.7,0.5,0.7,0.8
		c-0.1,4-0.1,7.3-0.1,9.7v3.5c0,1.3-0.3,1.9-1,1.9c0,0.1-0.9,0.4-2.7,0.9c-0.9,0-1.4-1.2-1.4-3.6c0-0.3-1.2-0.6-3.7-0.7
		c-0.2,0.5-0.3,1.1-0.3,1.8v1.5c0,0.3,0.7,0.5,2.2,0.6c0.5,0.3,0.8,0.7,0.8,1.3c-0.2,0.8-1.3,1.3-3.4,1.6c-0.4,0.5-0.7,1.4-0.7,2.7
		c0,0.4,0.7,0.5,2,0.5c1.4,0,2.4,0.1,3.1,0.2c0.2-2.4,0.7-3.5,1.6-3.5c0.1,0,0.2,0,0.3-0.1c2.1,0.3,3.2,1.1,3.2,2.4
		c-0.1,1.7-0.2,2.7-0.2,3c0,0.6,0,2.3,0.1,5.2c-0.1,1.2-0.7,1.8-1.6,1.8h-0.7c-0.8,0-2,0.1-3.6,0.2c-3.6-0.1-5.8-0.1-6.7-0.1
		c-2.4,0.2-3.8,0.4-4.2,0.4h-0.7c-1-0.2-1.6-0.6-1.6-1.4c0.2-1.9,0.4-3.4,0.4-4.4v-0.5c0-1.1-0.1-5.8-0.3-14.2
		c0.2-6.9,0.5-10.3,1-10.3c0-0.4,2.7-0.7,8-0.7C50.7,63.2,53.7,63,59,62.7z"/>
	
		<radialGradient id="SVGID_00000054264082701668643870000006241562136435072680_" cx="73.7199" cy="78.2833" r="13.8119" gradientUnits="userSpaceOnUse">
		<stop  offset="0" style="stop-color:#FFDDE1"/>
		<stop  offset="0.3842" style="stop-color:#FFC642"/>
		<stop  offset="1" style="stop-color:#7F5C00"/>
	</radialGradient>
	<path style="fill:url(#SVGID_00000054264082701668643870000006241562136435072680_);" d="M66,62h1.7c5.1,0.2,8.7,0.3,11,0.3H79
		c2,0,3,0.3,3,1c0.4,0,0.7,3.6,0.8,10.8c0,4.2-0.6,6.8-1.7,7.9c-0.9,1-1.7,1.6-2.3,1.8v0.2c0.2-0.1,1-0.2,2.4-0.4
		c1.2,0.2,1.8,0.8,1.8,1.6C83,86,83,86.5,83,86.7c0,1,0.5,3,1.5,6v0.1c0,1-0.9,1.5-2.8,1.5c-0.6,0.2-1.3,0.3-2.2,0.3h-0.5
		c-1.6-0.1-2.4-0.7-2.4-1.6v-0.1c0.2-0.8,0.3-1.5,0.3-2.1v-0.6c0-1.5-0.4-2.3-1.1-2.3c-0.2-0.1-0.5-0.1-0.8-0.1h-0.3
		c-1.1,0-1.7,0.5-1.7,1.4v1.1c0,2.5-0.5,3.8-1.5,3.8c0,0.2-2.2,0.3-6.7,0.4c-1.3-0.2-1.9-0.7-1.9-1.7c0.4-3.4,0.5-10.2,0.5-20.1v-8
		C63.5,62.8,64.3,62,66,62z M72,70L72,70c-0.1,3.5-0.2,6.1-0.2,7.9c0,1.4,0.2,2.1,0.5,2.1c0.7,0,1.4-0.5,2.1-1.4
		c0.2-0.4,0.3-0.9,0.3-1.7V74c0-1.5-0.8-2.7-2.3-3.6C72.3,70.3,72.2,70.2,72,70z"/>
</g>
</svg>
