<?xml version="1.0" encoding="utf-8"?>
<!-- Generator: Adobe Illustrator 25.4.1, SVG Export Plug-In . SVG Version: 6.00 Build 0)  -->
<svg version="1.1" id="Capa_1" xmlns="http://www.w3.org/2000/svg" xmlns:xlink="http://www.w3.org/1999/xlink" x="0px" y="0px"
	 width="100px" height="100px" viewBox="0 0 100 100" style="enable-background:new 0 0 100 100;" xml:space="preserve">
<style type="text/css">
	.st0{fill:url(#SVGID_1_);}
	.st1{fill:url(#SVGID_00000118362682615858372980000008633174099952971964_);}
	.st2{fill:url(#SVGID_00000040575439552526613540000003229111559406667922_);}
	.st3{fill:url(#SVGID_00000053506639616718718190000016736349968113434767_);}
	.st4{fill:url(#SVGID_00000168082141391220407540000012353524613504546228_);}
	.st5{fill:url(#SVGID_00000052792559885249456340000002924334009130296217_);}
	.st6{fill:url(#SVGID_00000148646009841058235790000001898731872951218863_);}
</style>
<g>
	<radialGradient id="SVGID_1_" cx="28.1555" cy="23.5959" r="13.3235" gradientUnits="userSpaceOnUse">
		<stop  offset="0" style="stop-color:#FFDDE1"/>
		<stop  offset="0.3842" style="stop-color:#FFC642"/>
		<stop  offset="1" style="stop-color:#BF4000"/>
	</radialGradient>
	<path class="st0" d="M26.7,6.7c4.5,0.3,7.1,0.7,7.9,1c0.3,0,0.5,0.2,0.6,0.6c-3.2,7.5-4.8,11.6-4.8,12.4c0.3,0.2,1.4,0.6,3.2,1.3
		c1.9,0.9,2.9,1.6,2.9,2.2v0.2c0,0.3-1.6,3.4-4.9,9.3c-2.3,4.5-3.8,6.8-4.4,6.8c0,0.1-0.2,0.2-0.7,0.2c-4.4-0.6-6.6-1.3-6.6-2.2
		v-0.1c0.1-0.3,1.1-2.2,3-5.6c2.1-3.5,3.1-5.4,3.1-5.8c-3.5-1.3-5.2-2.3-5.2-3.2v-0.2c0-0.5,1-3.5,2.9-9c1.1-4.1,1.8-6.5,2.2-7.4
		L26.7,6.7z"/>
	
		<radialGradient id="SVGID_00000028285995815880334350000016091693585022327448_" cx="47.7285" cy="22.2683" r="13.731" gradientUnits="userSpaceOnUse">
		<stop  offset="0" style="stop-color:#FFDDE1"/>
		<stop  offset="0.3842" style="stop-color:#FFC642"/>
		<stop  offset="1" style="stop-color:#BF4000"/>
	</radialGradient>
	<path style="fill:url(#SVGID_00000028285995815880334350000016091693585022327448_);" d="M50.4,5.5h1c4,0.4,6,0.9,6,1.6l0.1,0.5
		v0.3c-0.3,5.2-0.7,8.1-1.2,8.6c-0.7,1.3-2.2,3.2-4.5,5.8c-0.2,0.1-0.4,0.2-0.5,0.2H51c-0.3-0.1-0.4-0.4-0.4-0.7v-0.4
		c0.1-2.3,0.2-3.5,0.2-3.6c0-0.6-0.7-0.9-2-0.9h-1c0.1,3.1,0.5,6.5,1.2,10.2c0.3,1,0.8,1.9,1.3,2.6h0.1c1.7-3.6,3.8-7.4,6.2-11.2
		h0.1c0.4,0,0.6,0.2,0.6,0.5c0,0,0,0.4-0.1,1.1c0,0.7,0.1,2.6,0.4,5.9v1.5c0,3.5-2.1,6.8-6.4,9.9c-1.5,1-2.6,1.5-3.5,1.6
		c-2,0-4.2-1.6-6.7-4.7c-2.1-3.1-3.2-7.1-3.2-11.8c0-7.3,2.5-12.5,7.5-15.6C47.2,6,48.9,5.5,50.4,5.5z"/>
	
		<radialGradient id="SVGID_00000051366204477523083980000015730056551283855271_" cx="70.1765" cy="22.7073" r="13.8492" gradientUnits="userSpaceOnUse">
		<stop  offset="0" style="stop-color:#FFDDE1"/>
		<stop  offset="0.3842" style="stop-color:#FFC642"/>
		<stop  offset="1" style="stop-color:#BF4000"/>
	</radialGradient>
	<path style="fill:url(#SVGID_00000051366204477523083980000015730056551283855271_);" d="M73.4,5.8h0.7C77,6,78.5,6.6,78.7,7.5
		c0,0.5,0.4,4.5,1.2,11.9c0.1,1.1,0.1,2,0.1,2.7c0,7.7-3.1,13-9.2,15.8c-1.2,0.5-3.3,1-6.3,1.7c-1.3,0-2-0.8-2.2-2.4v-0.1
		c0.1-1.7,0.2-2.7,0.2-2.8v-0.3c0-0.9-0.6-3.9-1.7-9c-0.3-1.5-0.4-3-0.4-4.6c0-7.3,3.3-12.1,9.8-14.3C71.4,5.9,72.4,5.8,73.4,5.8z
		 M68.4,12.5c-0.6,1.5-1,3.6-1,6.4c0,4.3,1.3,9.2,3.8,14.5v0.2h0.2c1.1-2.3,1.6-4.5,1.6-6.8c0-4.7-1.4-9.2-4.1-13.4
		C68.6,13,68.5,12.7,68.4,12.5L68.4,12.5z"/>
	
		<radialGradient id="SVGID_00000011738367313966183330000007961493704188375193_" cx="22.3298" cy="76.4933" r="14.1061" gradientUnits="userSpaceOnUse">
		<stop  offset="0" style="stop-color:#FFDDE1"/>
		<stop  offset="0.3842" style="stop-color:#FFC642"/>
		<stop  offset="1" style="stop-color:#BF4000"/>
	</radialGradient>
	<path style="fill:url(#SVGID_00000011738367313966183330000007961493704188375193_);" d="M22.5,60.5c7.5,0.1,11.2,0.2,11.2,0.5
		c0.4,0.6,0.5,1.4,0.5,2.5C34.1,67,34,69.6,34,71.1c0,1-0.6,1.5-1.8,1.5h-0.5c-0.3,0-0.7,0-1.2-0.1l-0.2,0.1c-1.2,0-1.9-0.9-2.1-2.7
		c-0.5-1.8-0.8-2.8-1-2.9c-0.2,3.7-0.2,6.6-0.2,8.6L26.9,76c0.5,8.9,1.1,13.4,1.7,13.4c0.4,0.7,0.6,1.2,0.6,1.5
		c0,0.8-0.7,1.4-2.1,1.5h-0.3c-0.5,0-2.1-0.1-4.8-0.2l-1.2,0.1c-2.5,0-3.8-0.5-3.8-1.5v-0.2c0.6-2.9,0.9-5.1,0.9-6.7
		c-0.2-6.6-0.3-10.1-0.4-10.6h0.1c-0.1-0.1-0.1-0.2-0.1-0.3c0-1.2-0.1-3-0.3-5.4h-0.1c-0.6,2-0.9,3.4-0.9,4.3
		c-0.4,1.2-1.2,1.8-2.5,1.8c-0.1,0-0.3,0.1-0.6,0.1c-1.8,0-2.7-0.8-2.7-2.4v-3.5c0-0.4,0-0.7,0.1-1c-0.1-0.3-0.1-0.6-0.1-1V65
		c0-2.2,0.3-3.4,0.9-3.8C11.2,60.7,15,60.5,22.5,60.5z"/>
	
		<radialGradient id="SVGID_00000031195615466884121770000013759354096652392617_" cx="40.2571" cy="76.678" r="11.9527" gradientUnits="userSpaceOnUse">
		<stop  offset="0" style="stop-color:#FFDDE1"/>
		<stop  offset="0.3842" style="stop-color:#FFC642"/>
		<stop  offset="1" style="stop-color:#BF4000"/>
	</radialGradient>
	<path style="fill:url(#SVGID_00000031195615466884121770000013759354096652392617_);" d="M42.9,60.7c1,0.2,1.5,1,1.5,2.2l0.1,0.8
		c-0.1,2.1-0.1,3.7-0.1,4.8c0,2.5,0.3,8,1,16.2l0.3,5.4c0,1.6-1.4,2.4-4.1,2.4c-2,0.1-3.1,0.2-3.2,0.2c-0.8,0-1.5-0.4-2.3-1.3
		c-0.4,0-0.7-2.5-0.9-7.6V72.3c0-2.3-0.1-5.6-0.4-9.7c0-0.9,0.7-1.4,2-1.8c0.3-0.1,0.7-0.1,1.1-0.1h0.2
		C39.2,60.8,40.9,60.8,42.9,60.7z"/>
	
		<radialGradient id="SVGID_00000165226402825209652790000006713894898538792113_" cx="56.4075" cy="77.5232" r="13.3235" gradientUnits="userSpaceOnUse">
		<stop  offset="0" style="stop-color:#FFDDE1"/>
		<stop  offset="0.3842" style="stop-color:#FFC642"/>
		<stop  offset="1" style="stop-color:#BF4000"/>
	</radialGradient>
	<path style="fill:url(#SVGID_00000165226402825209652790000006713894898538792113_);" d="M54.9,60.6c4.5,0.3,7.1,0.7,7.9,1
		c0.3,0,0.5,0.2,0.6,0.6c-3.2,7.5-4.8,11.6-4.8,12.4c0.3,0.2,1.4,0.6,3.2,1.3c1.9,0.9,2.9,1.6,2.9,2.2v0.2c0,0.3-1.6,3.4-4.9,9.3
		c-2.3,4.5-3.8,6.8-4.4,6.8c0,0.1-0.2,0.2-0.7,0.2c-4.4-0.6-6.6-1.3-6.6-2.2v-0.1c0.1-0.3,1.1-2.2,3-5.6c2.1-3.5,3.1-5.4,3.1-5.8
		c-3.5-1.3-5.2-2.3-5.2-3.2v-0.2c0-0.5,1-3.5,2.9-9c1.1-4.1,1.8-6.5,2.2-7.4L54.9,60.6z"/>
	
		<radialGradient id="SVGID_00000146457219453580081880000006442330284087257002_" cx="78.0212" cy="76.8977" r="13.9791" gradientUnits="userSpaceOnUse">
		<stop  offset="0" style="stop-color:#FFDDE1"/>
		<stop  offset="0.3842" style="stop-color:#FFC642"/>
		<stop  offset="1" style="stop-color:#BF4000"/>
	</radialGradient>
	<path style="fill:url(#SVGID_00000146457219453580081880000006442330284087257002_);" d="M68.2,60.9c1.7,0.1,2.9,0.1,3.6,0.1
		c0.4,0,0.9,0,1.5-0.1c2.4,0,3.6,0.7,3.6,2c0,0.6-0.2,2.5-0.5,6c0.7,0,1.6-0.1,2.8-0.3C79,67.1,79,66.1,79,65.4v-1.3
		c0-0.3,0-0.8-0.1-1.4c0.2-0.8,0.8-1.2,1.7-1.2c2.8,0.4,4.4,0.5,4.8,0.5c0.4,0,1.1-0.2,2.1-0.5c1,0,1.5,0.9,1.7,2.8v0.2
		c-0.3,5-0.4,8.8-0.4,11.5v5.1c0,3.7,0.3,7.1,0.9,10.2c-0.2,0.9-0.7,1.3-1.7,1.3h-0.5c-0.5,0-1,0-1.6-0.1c-1.9,0.3-3.1,0.4-3.6,0.4
		c-2.2-0.3-3.2-1-3.2-2.1v-0.3c0.2-0.6,0.4-5.5,0.6-14.5v-2c-2,0.5-3.1,1.1-3.1,1.8v9.1c0,0.6,0.1,2.3,0.4,5.3
		c0,0.8-0.4,1.4-1.1,1.8C75.5,92,75.3,92,75.1,92c-0.8,0-2.7,0-5.8-0.1c-0.5,0.1-0.8,0.1-1,0.1c-1.1,0-1.8-0.5-1.9-1.5v-0.1
		c0.1-1.1,0.2-2.6,0.3-4.3c0-0.5,0-1-0.1-1.4c0-0.1,0-1.1,0.1-3.2c0-1.9-0.1-5.4-0.2-10.4c0.1-1.9,0.1-4.1,0.1-6.4
		c0-2.1,0.4-3.4,1.2-3.8C68,61,68.1,60.9,68.2,60.9z"/>
</g>
</svg>
